<svg width="393" height="72" viewBox="0 0 393 72" fill="none" xmlns="http://www.w3.org/2000/svg">
<path d="M200 35C212.642 35 223.718 28.2978 229.869 18.2529C235.626 8.8529 238.504 4.15291 239.903 2.93824C241.817 1.27696 241.734 1.32323 244.151 0.55887C245.917 0 248.678 0 254.2 0H367.4C376.361 0 380.841 0 384.264 1.7439C387.274 3.27787 389.722 5.72556 391.256 8.73615C393 12.1587 393 16.6392 393 25.6V46.4C393 55.3608 393 59.8413 391.256 63.2638C389.722 66.2744 387.274 68.7221 384.264 70.2561C380.841 72 376.361 72 367.4 72H25.6C16.6392 72 12.1587 72 8.73615 70.2561C5.72556 68.7221 3.27787 66.2744 1.7439 63.2638C0 59.8413 0 55.3608 0 46.4V25.6C0 16.6392 0 12.1587 1.7439 8.73615C3.27787 5.72556 5.72556 3.27787 8.73615 1.7439C12.1587 0 16.6392 0 25.6 0H145.8C151.322 0 154.083 0 155.849 0.55887C158.266 1.32323 158.183 1.27696 160.097 2.93824C161.496 4.15291 164.374 8.8529 170.131 18.2529C176.282 28.2978 187.358 35 200 35Z" fill="#212121"/>
</svg>
